<?xml version="1.0" encoding="UTF-8" standalone="no"?>
<svg
   xmlns:dc="http://purl.org/dc/elements/1.1/"
   xmlns:cc="http://creativecommons.org/ns#"
   xmlns:rdf="http://www.w3.org/1999/02/22-rdf-syntax-ns#"
   xmlns:svg="http://www.w3.org/2000/svg"
   xmlns="http://www.w3.org/2000/svg"
   viewBox="120 880 3760 1280"
   height="1280"
   width="3760"
   preserveAspectRatio="xMidYMid meet"
   xml:space="preserve"
   id="svg2"
   version="1.1"><metadata
     id="metadata8"><rdf:RDF><cc:Work
         rdf:about=""><dc:format>image/svg+xml</dc:format><dc:type
           rdf:resource="http://purl.org/dc/dcmitype/StillImage" /></cc:Work></rdf:RDF></metadata><defs
     id="defs6"><clipPath
       id="clipPath18"
       clipPathUnits="userSpaceOnUse"><path
         id="path16"
         d="M 0,3000 H 3000 V 0 H 0 Z" /></clipPath></defs><g
     transform="matrix(1.3333333,0,0,-1.3333333,0,4000)"
     id="g10"><g
       id="g12"><g
         clip-path="url(#clipPath18)"
         id="g14"><g
           transform="translate(473.2109,1688.9814)"
           id="g20"><path
             id="path22"
             style="fill:#000000;fill-opacity:1;fill-rule:nonzero;stroke:none"
             d="m 0,0 h -53.687 c 0.793,2.237 1.466,4.235 2.206,6.209 4.474,11.945 8.961,23.886 13.453,35.825 0.515,1.369 0.711,3.221 1.744,3.932 0.987,0.68 2.871,0.174 4.362,0.174 35.388,0.006 70.776,0.009 106.165,0.014 h 2.244 C 45.708,-55.598 14.966,-157.226 -15.777,-258.857 h -70.191 c -2.088,6.948 -4.165,13.871 -6.247,20.792 -12.329,40.99 -24.661,81.98 -36.99,122.97 -2.861,9.514 -5.729,19.027 -8.536,28.556 -0.223,0.757 -0.187,1.688 0.047,2.449 10.007,32.569 20.05,65.127 30.092,97.687 0.124,0.4 0.289,0.789 0.766,1.247 18.333,-61.461 36.666,-122.922 55,-184.383 0.1,-0.012 0.201,-0.024 0.302,-0.037 C -34.394,-113.175 -17.253,-56.773 0,0" /></g><g
           transform="translate(296.5913,1735.0757)"
           id="g24"><path
             id="path26"
             style="fill:#000000;fill-opacity:1;fill-rule:nonzero;stroke:none"
             d="M 0,0 H 52.289 C 51.388,-3.038 50.53,-5.982 49.643,-8.92 32.146,-66.87 14.641,-124.819 -2.853,-182.77 c -12.128,-40.175 -24.249,-80.352 -36.338,-120.536 -0.376,-1.25 -0.855,-1.918 -2.332,-1.727 -1.029,0.134 -2.091,0.027 -3.27,0.027 -29.902,101.657 -59.79,203.272 -89.685,304.907 4.2,0.554 4.199,0.553 5.244,-2.974 9.777,-32.98 19.546,-65.962 29.334,-98.939 10.959,-36.924 21.933,-73.844 32.904,-110.765 0.114,-0.384 0.27,-0.756 0.543,-1.514 C -44.232,-142.636 -22.119,-71.328 0,0" /></g><g
           transform="translate(206.9331,1430.1133)"
           id="g28"><path
             id="path30"
             style="fill:#000000;fill-opacity:1;fill-rule:nonzero;stroke:none"
             d="m 0,0 h -15.553 c -30.868,101.605 -61.734,203.205 -92.666,305.022 h 4.904 c 4.423,0 8.847,-0.06 13.267,0.036 1.327,0.029 1.789,-0.435 2.116,-1.571 6.527,-22.633 13.081,-45.259 19.643,-67.883 14.096,-48.6 28.198,-97.198 42.3,-145.796 C -17.449,60.373 -8.906,30.94 -0.367,1.505 -0.236,1.053 -0.143,0.59 0,0" /></g><g
           transform="translate(127.1401,1735.0801)"
           id="g32"><path
             id="path34"
             style="fill:#000000;fill-opacity:1;fill-rule:nonzero;stroke:none"
             d="m 0,0 h 11.095 c 29.738,-101.593 59.489,-203.234 89.266,-304.965 h -11.9 C 58.994,-203.378 29.53,-101.802 0,0" /></g><g
           transform="translate(243.1592,1430.127)"
           id="g36"><path
             id="path38"
             style="fill:#000000;fill-opacity:1;fill-rule:nonzero;stroke:none"
             d="m 0,0 h -7.043 c -29.739,101.596 -59.476,203.191 -89.251,304.912 h 6.609 C -59.799,203.305 -29.913,101.697 0,0" /></g><g
           transform="translate(898.4546,1501.4722)"
           id="g40"><path
             id="path42"
             style="fill:#000000;fill-opacity:1;fill-rule:nonzero;stroke:none"
             d="m 0,0 c 51.794,0 106.035,-0.767 155.941,-0.767 -36.571,-31.734 -49.066,-21.137 -53.746,-70.568 -75.209,0 -98.241,-0.809 -173.442,-0.809 V 232.638 H 2.944 C 2.944,156.172 0,78.558 0,0" /></g><g
           transform="translate(1000.7202,1429.7822)"
           id="g44"><path
             id="path46"
             style="fill:#000000;fill-opacity:1;fill-rule:nonzero;stroke:none"
             d="m 0,0 c -36.678,0 -19.613,0.534 -56.122,0.534 v 66.928 c 35.779,0 73.679,3.804 110.612,3.804 C 19.005,25.316 37.929,48.423 0,0" /></g><g
           transform="translate(1806.2705,1428.3828)"
           id="g48"><path
             id="path50"
             style="fill:#000000;fill-opacity:1;fill-rule:nonzero;stroke:none"
             d="m 0,0 h -73.982 l 1.277,225.174 73.798,-44.218 z" /></g><g
           transform="translate(2712.8164,1590.9795)"
           id="g52"><path
             id="path54"
             style="fill:#000000;fill-opacity:1;fill-rule:nonzero;stroke:none"
             d="M 0,0 H 33.986 V -70.785 H -84.498 c -0.402,7.033 -10.652,63.899 16.643,93.755 31.08,33.996 58.141,71.339 86.998,107.191 3.822,4.749 7.929,9.288 16.028,12.997 0,-32.947 1.418,-65.984 -0.915,-98.779 C 33.605,35.232 21.97,26.733 15.185,18.072 11.031,12.771 6.517,7.727 0,0" /></g><path
           id="path56"
           style="fill:#000000;fill-opacity:1;fill-rule:nonzero;stroke:none"
           d="m 2826.268,1592.375 h 59.795 v -71.553 h -59.795 z" /><g
           transform="translate(1732.1357,1733.9829)"
           id="g58"><path
             id="path60"
             style="fill:#000000;fill-opacity:1;fill-rule:nonzero;stroke:none"
             d="m 0,0 -0.114,-66.769 163.613,-98.092 0.37,67.329 z" /></g><g
           transform="translate(2467.2832,1511.8853)"
           id="g62"><path
             id="path64"
             style="fill:#000000;fill-opacity:1;fill-rule:nonzero;stroke:#000000;stroke-width:35;stroke-linecap:butt;stroke-linejoin:miter;stroke-miterlimit:10;stroke-dasharray:none;stroke-opacity:1"
             d="m 0,0 70.585,64.45 c 18.011,16.406 30.874,30.071 38.585,40.994 7.71,10.92 11.568,22.584 11.568,34.993 0,12.714 -3.997,22.559 -11.989,29.534 -7.994,6.973 -19.364,10.46 -34.111,10.46 -21.615,0 -42.329,-8.41 -62.142,-25.226 v 26.457 c 18.913,13.432 40.921,20.15 66.025,20.15 21.616,0 38.613,-5.334 50.998,-15.998 12.381,-10.666 18.575,-24.972 18.575,-42.915 0,-14.151 -4.28,-27.972 -12.834,-41.456 C 126.703,87.958 111.337,71.218 89.159,51.221 L 33.267,0.923 V 0.307" /></g><path
           id="path66"
           style="fill:#000000;fill-opacity:1;fill-rule:nonzero;stroke:none"
           d="m 2629.278,1429.365 h -174.146 v 57.854 h 174.146 z" /><path
           id="path68"
           style="fill:#000000;fill-opacity:1;fill-rule:nonzero;stroke:none"
           d="m 590.692,1730.63 h 74.151 v -302.128 h -74.151 z" /><g
           transform="translate(728.5195,1659.5566)"
           id="g70"><path
             id="path72"
             style="fill:#000000;fill-opacity:1;fill-rule:nonzero;stroke:none"
             d="M 0,0 C -35.523,0 -17.684,-0.107 -53.044,-0.107 V 71.944 H 52.039 C 30.947,41.106 34.386,48.484 0,0" /></g><path
           id="path74"
           style="fill:#000000;fill-opacity:1;fill-rule:nonzero;stroke:none"
           d="m 674.075,1615.796 h 74.372 v -71.423 h -74.372 z" /><path
           id="path76"
           style="fill:#000000;fill-opacity:1;fill-rule:nonzero;stroke:none"
           d="m 674.775,1499.653 h 103.59 v -71.423 h -103.59 z" /><g
           transform="translate(1139.0981,1450.1885)"
           id="g78"><path
             id="path80"
             style="fill:#020202;fill-opacity:1;fill-rule:nonzero;stroke:none"
             d="m 0,0 c -58.328,41.288 -74.712,76.677 -73.445,141.204 0.862,43.865 27.57,99.643 73.773,122.581" /></g><g
           transform="translate(1150.4453,1718.4976)"
           id="g82"><path
             id="path84"
             style="fill:#020202;fill-opacity:1;fill-rule:nonzero;stroke:none"
             d="m 0,0 -0.512,-98.124 c 0,0 17.271,41.885 68.492,40.867 36.095,-0.717 70.662,-29.107 70.662,-29.107 l 52.469,36.575 c 0,0 -21.801,43.276 -73.725,58.215 C 48.831,28.15 0,0 0,0" /></g><g
           transform="translate(1150.2607,1445.4473)"
           id="g86"><path
             id="path88"
             style="fill:#020202;fill-opacity:1;fill-rule:nonzero;stroke:none"
             d="m 0,0 -0.512,98.125 c 0,0 17.271,-41.886 68.492,-40.868 36.096,0.717 70.662,29.107 70.662,29.107 l 52.469,-36.575 c 0,0 -21.801,-43.275 -73.725,-58.215 C 48.831,-28.149 0,0 0,0" /></g><g
           transform="translate(1518.2715,1463.7334)"
           id="g90"><path
             id="path92"
             style="fill:none;stroke:#000000;stroke-width:70;stroke-linecap:butt;stroke-linejoin:miter;stroke-miterlimit:10;stroke-dasharray:none;stroke-opacity:1"
             d="M 0,0 C -61.108,0 -106.386,42.867 -105.858,116.997 -105.335,190.425 -61.108,233.386 0,233.386" /></g><g
           transform="translate(1528.9326,1464.3428)"
           id="g94"><path
             id="path96"
             style="fill:none;stroke:#000000;stroke-width:70;stroke-linecap:butt;stroke-linejoin:miter;stroke-miterlimit:10;stroke-dasharray:none;stroke-opacity:1"
             d="M 0,0 C 61.107,0 106.385,42.867 105.857,116.997 105.335,190.425 61.107,233.386 0,233.386" /></g><g
           transform="translate(1978.4512,1429.6973)"
           id="g98"><path
             id="path100"
             style="fill:#000000;fill-opacity:1;fill-rule:nonzero;stroke:none"
             d="M 0,0 H 73.983 L 72.706,225.174 -1.093,180.956 Z" /></g><g
           transform="translate(2051.4551,1734.6304)"
           id="g102"><path
             id="path104"
             style="fill:#000000;fill-opacity:1;fill-rule:nonzero;stroke:none"
             d="m 0,0 0.115,-66.769 -155.998,-98.593 -1.626,67.83 z" /></g><path
           id="path106"
           style="fill:#000000;fill-opacity:1;fill-rule:nonzero;stroke:none"
           d="m 2108.955,1733.065 h 74.15 v -302.127 h -74.15 z" /><g
           transform="translate(2246.7822,1661.9917)"
           id="g108"><path
             id="path110"
             style="fill:#000000;fill-opacity:1;fill-rule:nonzero;stroke:none"
             d="m 0,0 c -35.523,0 -17.684,-0.106 -53.044,-0.106 v 72.05 H 52.038 C 30.947,41.106 34.386,48.484 0,0" /></g><path
           id="path112"
           style="fill:#000000;fill-opacity:1;fill-rule:nonzero;stroke:none"
           d="m 2192.338,1618.231 h 74.372 v -71.423 h -74.372 z" /><path
           id="path114"
           style="fill:#000000;fill-opacity:1;fill-rule:nonzero;stroke:none"
           d="m 2193.038,1502.088 h 103.591 v -71.423 h -103.591 z" /><path
           id="path116"
           style="fill:#000000;fill-opacity:1;fill-rule:nonzero;stroke:none"
           d="m 2512.78,1497.575 h -57.475 v 27.055 h 57.475 z" /><path
           id="path118"
           style="fill:#000000;fill-opacity:1;fill-rule:nonzero;stroke:none"
           d="m 2816.127,1428.486 h -57.854 v 304.882 h 57.854 z" /><g
           transform="translate(2512.7803,1497.5752)"
           id="g120"><path
             id="path122"
             style="fill:#000000;fill-opacity:1;fill-rule:nonzero;stroke:none"
             d="M 0,0 27.616,28.036 15.841,39.391 -14.158,33.083" /></g><g
           transform="translate(1313.3325,2028.9004)"
           id="g124"><path
             id="path126"
             style="fill:#000000;fill-opacity:1;fill-rule:nonzero;stroke:none"
             d="m 0,0 -25.195,-12.731 -25.251,-12.61 -50.591,-25.036 0.132,4.497 c 24.495,-12.908 49.055,-25.697 73.483,-38.728 24.455,-12.982 48.925,-25.936 73.3,-39.065 24.391,-13.099 48.823,-26.123 73.138,-39.362 l 73.001,-39.613 -4.83,-0.038 71.535,40.246 71.68,39.992 17.926,9.987 17.966,9.916 35.934,19.83 c 11.967,6.629 23.974,13.188 35.98,19.746 l 36.016,19.685 0.108,-4.383 -53.073,27.871 -26.492,14.023 -26.435,14.138 27.123,-12.768 27.065,-12.883 54.042,-25.941 4.178,-2.004 -4.071,-2.379 -35.437,-20.708 c -11.811,-6.906 -23.621,-13.811 -35.471,-20.647 l -35.519,-20.563 -17.76,-10.281 -17.801,-10.208 -71.225,-40.795 -71.371,-40.54 -2.403,-1.365 -2.427,1.327 -72.873,39.848 c -24.309,13.249 -48.502,26.713 -72.736,40.101 -24.249,13.358 -48.404,26.891 -72.574,40.397 -24.197,13.456 -48.261,27.154 -72.39,40.734 l -4.393,2.472 4.524,2.025 51.521,23.06 25.805,11.437 z" /></g><g
           transform="translate(1535.4902,1882.8315)"
           id="g128"><path
             id="path130"
             style="fill:#000000;fill-opacity:1;fill-rule:nonzero;stroke:none"
             d="M 0,0 -60.667,1.918 -61.811,353.341 0,410.391 Z" /></g><g
           transform="translate(1422.9707,1897.9756)"
           id="g132"><path
             id="path134"
             style="fill:#000000;fill-opacity:1;fill-rule:nonzero;stroke:none"
             d="m 0,0 -59.267,31.644 -0.608,196.992 59.127,55.855 z" /></g><g
           transform="translate(1535.4902,2293.2222)"
           id="g136"><path
             id="path138"
             style="fill:#000000;fill-opacity:1;fill-rule:nonzero;stroke:none"
             d="M 0,0 77.941,-63.548" /></g><g
           transform="translate(1536.4385,2294.3848)"
           id="g140"><path
             id="path142"
             style="fill:#000000;fill-opacity:1;fill-rule:nonzero;stroke:none"
             d="M 0,0 76.993,-64.71 -1.896,-2.325 Z" /></g><g
           transform="translate(1644.9814,1929.6191)"
           id="g144"><path
             id="path146"
             style="fill:#000000;fill-opacity:1;fill-rule:nonzero;stroke:none"
             d="m 0,0 -57.877,-32.568 -0.491,241.055 58.102,44.265 z" /></g><g
           transform="translate(1421.814,2181.1348)"
           id="g148"><path
             id="path150"
             style="fill:#000000;fill-opacity:1;fill-rule:nonzero;stroke:none"
             d="M 0,0 46.602,-38.453" /></g><g
           transform="translate(1422.7686,2182.2915)"
           id="g152"><path
             id="path154"
             style="fill:#000000;fill-opacity:1;fill-rule:nonzero;stroke:none"
             d="M 0,0 45.647,-39.609 -1.909,-2.314 Z" /></g><g
           transform="translate(1642.3682,2180.3887)"
           id="g156"><path
             id="path158"
             style="fill:#000000;fill-opacity:1;fill-rule:nonzero;stroke:none"
             d="M 0,0 46.602,-38.453" /></g><g
           transform="translate(1643.3223,2181.5459)"
           id="g160"><path
             id="path162"
             style="fill:#000000;fill-opacity:1;fill-rule:nonzero;stroke:none"
             d="M 0,0 45.647,-39.61 -1.909,-2.314 Z" /></g></g></g></g></svg>